<svg id="Camada_1" data-name="Camada 1" xmlns="http://www.w3.org/2000/svg" viewBox="0 0 1000 1007.63"><defs><style>.cls-1{fill:#b2e3fa;}.cls-2{fill:blue;}.cls-3{font-size:874px;fill:#0000f3;font-family:AdobeClean-Bold, Adobe Clean;font-weight:700;letter-spacing:-0.09em;}.cls-4{letter-spacing:-0.07em;}</style></defs><rect class="cls-1" x="0.5" y="0.5" width="999" height="999" rx="75.31"/><path class="cls-2" d="M924.19,1A74.9,74.9,0,0,1,999,75.81V924.19A74.9,74.9,0,0,1,924.19,999H75.81A74.9,74.9,0,0,1,1,924.19V75.81A74.9,74.9,0,0,1,75.81,1H924.19m0-1H75.81A75.81,75.81,0,0,0,0,75.81V924.19A75.81,75.81,0,0,0,75.81,1000H924.19A75.81,75.81,0,0,0,1000,924.19V75.81A75.81,75.81,0,0,0,924.19,0Z"/><text class="cls-3" transform="translate(59.07 794.37)">E<tspan class="cls-4" x="397.67" y="0">u</tspan></text></svg>